<svg id="visual" viewBox="0 0 960 340" width="960" height="340" xmlns="http://www.w3.org/2000/svg" xmlns:xlink="http://www.w3.org/1999/xlink" version="1.1"><rect x="0" y="0" width="960" height="340" fill="#CB997E"></rect><path d="M0 239L22.8 237.2C45.7 235.3 91.3 231.7 137 233.5C182.7 235.3 228.3 242.7 274 240.2C319.7 237.7 365.3 225.3 411.2 232.7C457 240 503 267 548.8 271C594.7 275 640.3 256 686 249.7C731.7 243.3 777.3 249.7 823 247.2C868.7 244.7 914.3 233.3 937.2 227.7L960 222L960 341L937.2 341C914.3 341 868.7 341 823 341C777.3 341 731.7 341 686 341C640.3 341 594.7 341 548.8 341C503 341 457 341 411.2 341C365.3 341 319.7 341 274 341C228.3 341 182.7 341 137 341C91.3 341 45.7 341 22.8 341L0 341Z" fill="#FFBF69" stroke-linecap="round" stroke-linejoin="miter"></path></svg>