<svg id="visual" viewBox="0 0 960 340" width="960" height="340" xmlns="http://www.w3.org/2000/svg" xmlns:xlink="http://www.w3.org/1999/xlink" version="1.1"><rect x="0" y="0" width="960" height="340" fill="#FFBF69"></rect><path d="M0 248L22.8 251.8C45.7 255.7 91.3 263.3 137 260.5C182.7 257.7 228.3 244.3 274 247.3C319.7 250.3 365.3 269.7 411.2 280.3C457 291 503 293 548.8 288C594.7 283 640.3 271 686 264C731.7 257 777.3 255 823 250.5C868.7 246 914.3 239 937.2 235.5L960 232L960 341L937.2 341C914.3 341 868.7 341 823 341C777.3 341 731.7 341 686 341C640.3 341 594.7 341 548.8 341C503 341 457 341 411.2 341C365.3 341 319.7 341 274 341C228.3 341 182.7 341 137 341C91.3 341 45.7 341 22.8 341L0 341Z" fill="#FF9F1C" stroke-linecap="round" stroke-linejoin="miter"></path></svg>