<svg id="visual" viewBox="0 0 960 340" width="960" height="340" xmlns="http://www.w3.org/2000/svg" xmlns:xlink="http://www.w3.org/1999/xlink" version="1.1"><path d="M0 227L22.8 227.8C45.7 228.7 91.3 230.3 137 236C182.7 241.7 228.3 251.3 274 256.3C319.7 261.3 365.3 261.7 411.2 267.3C457 273 503 284 548.8 287C594.7 290 640.3 285 686 272.3C731.7 259.7 777.3 239.3 823 229.8C868.7 220.3 914.3 221.7 937.2 222.3L960 223L960 341L937.2 341C914.3 341 868.7 341 823 341C777.3 341 731.7 341 686 341C640.3 341 594.7 341 548.8 341C503 341 457 341 411.2 341C365.3 341 319.7 341 274 341C228.3 341 182.7 341 137 341C91.3 341 45.7 341 22.8 341L0 341Z" fill="#d9b99b" stroke-linecap="round" stroke-linejoin="miter"></path></svg>