<svg id="visual" viewBox="0 0 960 340" width="960" height="340" xmlns="http://www.w3.org/2000/svg" xmlns:xlink="http://www.w3.org/1999/xlink" version="1.1"><rect x="0" y="0" width="960" height="340" fill="#D9B99B"></rect><path d="M0 248L22.8 248.2C45.7 248.3 91.3 248.7 137 250C182.7 251.3 228.3 253.7 274 250.8C319.7 248 365.3 240 411.2 245.7C457 251.3 503 270.7 548.8 278.3C594.7 286 640.3 282 686 274.2C731.7 266.3 777.3 254.7 823 256.3C868.7 258 914.3 273 937.2 280.5L960 288L960 341L937.2 341C914.3 341 868.7 341 823 341C777.3 341 731.7 341 686 341C640.3 341 594.7 341 548.8 341C503 341 457 341 411.2 341C365.3 341 319.7 341 274 341C228.3 341 182.7 341 137 341C91.3 341 45.7 341 22.8 341L0 341Z" fill="#CB997E" stroke-linecap="round" stroke-linejoin="miter"></path></svg>